# xmcd
#
# Track frame offsets: 
#        150
#        22673
#        46519
#        65834
#        81461
#        103503
#        124502
#        146464
#        164977
#
# Disc length: 2391 seconds
#
# Revision: 0
# Processed by: cddbd v1.5.2PL0 Copyright (c) Steve Scherf et al.
# Submitted via: ExactAudioCopy v0.95b4
#
DISCID=73095509
DTITLE=K. T. Oslin - This Woman
DYEAR=1900
DGENRE=Country
TTITLE0=This Women
TTITLE1=Money
TTITLE2=Round the Clock Lovin'
TTITLE3=Where Is a Woman To Go
TTITLE4=Hold Me
TTITLE5=Hey Bobby
TTITLE6=Jealous
TTITLE7=Didn't Expect It To Go Down This Way
TTITLE8=Truly Blue
EXTD=
EXTT0=
EXTT1=
EXTT2=
EXTT3=
EXTT4=
EXTT5=
EXTT6=
EXTT7=
EXTT8=
PLAYORDER=
